HIERARCHY
ROOT Hips
{
	OFFSET 0.000000 0.000000 0.000000
	CHANNELS 6 Xposition Yposition Zposition Zrotation Yrotation Xrotation 
	JOINT LowerBack
	{
		OFFSET 0.000000 0.000000 0.000000
		CHANNELS 3 Zrotation Yrotation Xrotation
		JOINT Spine
		{
			OFFSET 0.028270 2.035590 -0.193380
			CHANNELS 3 Zrotation Yrotation Xrotation
			JOINT Spine1
			{
				OFFSET 0.056720 2.048850 -0.042750
				CHANNELS 3 Zrotation Yrotation Xrotation
				JOINT Neck
				{
					OFFSET 0.000000 0.000000 0.000000
					CHANNELS 3 Zrotation Yrotation Xrotation
					JOINT Neck1
					{
						OFFSET -0.054170 1.746240 0.172020
						CHANNELS 3 Zrotation Yrotation Xrotation
						JOINT Head
						{
							OFFSET 0.104070 1.761360 -0.123970
							CHANNELS 3 Zrotation Yrotation Xrotation
							End Site
							{
								OFFSET 0.000000 0.000000 0.000000
							}
						}
					}
				}
				JOINT LeftShoulder
				{
					OFFSET 0.000000 0.000000 0.000000
					CHANNELS 3 Zrotation Yrotation Xrotation
					JOINT LeftArm
					{
						OFFSET 3.362410 1.200890 -0.311210
						CHANNELS 3 Zrotation Yrotation Xrotation
						JOINT LeftForeArm
						{
							OFFSET 4.983000 -0.000000 -0.000000
							CHANNELS 3 Zrotation Yrotation Xrotation
							JOINT LeftHand
							{
								OFFSET 3.483560 -0.000000 -0.000000
								CHANNELS 3 Zrotation Yrotation Xrotation
								JOINT LeftFingerBase
								{
									OFFSET 0.000000 0.000000 0.000000
									CHANNELS 3 Zrotation Yrotation Xrotation
									JOINT LeftHandIndex1
									{
										OFFSET 0.715260 -0.000000 -0.000000
										CHANNELS 3 Zrotation Yrotation Xrotation
										End Site
										{
											OFFSET 0.000000 0.000000 0.000000
										}
									}
								}
								JOINT LThumb
								{
									OFFSET 0.000000 0.000000 0.000000
									CHANNELS 3 Zrotation Yrotation Xrotation
									End Site
									{
										OFFSET 0.000000 0.000000 0.000000
									}
								}
							}
						}
					}
				}
				JOINT RightShoulder
				{
					OFFSET 0.000000 0.000000 0.000000
					CHANNELS 3 Zrotation Yrotation Xrotation
					JOINT RightArm
					{
						OFFSET -3.136600 1.374050 -0.404650
						CHANNELS 3 Zrotation Yrotation Xrotation
						JOINT RightForeArm
						{
							OFFSET -5.241900 -0.000000 -0.000000
							CHANNELS 3 Zrotation Yrotation Xrotation
							JOINT RightHand
							{
								OFFSET -3.444170 -0.000000 -0.000000
								CHANNELS 3 Zrotation Yrotation Xrotation
								JOINT RightFingerBase
								{
									OFFSET 0.000000 0.000000 0.000000
									CHANNELS 3 Zrotation Yrotation Xrotation
									JOINT RightHandIndex1
									{
										OFFSET -0.622530 -0.000000 -0.000000
										CHANNELS 3 Zrotation Yrotation Xrotation
										End Site
										{
											OFFSET 0.000000 0.000000 0.000000
										}
									}
								}
								JOINT RThumb
								{
									OFFSET 0.000000 0.000000 0.000000
									CHANNELS 3 Zrotation Yrotation Xrotation
									End Site
									{
										OFFSET 0.000000 0.000000 0.000000
									}
								}
							}
						}
					}
				}
			}
		}
	}
}
}
MOTION
Frames: 12
Frame Time: 0.008333
16.302572 16.513457 1.208263 -18.889688 -89.454574 58.178145 1.986874 -2.012753 -9.476405 -0.125420 -2.542591 -5.078261 -5.444319 -2.725918 -0.546065 11.725788 -11.292229 -13.971504 -2.453639 -0.081884 -2.139002 0.000000 0.000000 0.000000 2.737281 7.513801 2.961778 -80.461472 7.510672 4.553193 -0.813413 -59.054243 -0.061944 29.146477 -17.217606 -4.610713 -0.211532 0.273588 -0.000000 0.000000 0.000000 0.000000 0.000000 0.000000 0.000000 12.119264 -6.315350 2.388589 80.166294 9.854523 14.249508 1.377282 49.954089 -0.037657 -15.047731 14.388734 -1.980201 0.189265 -0.347719 0.000000 0.000000 0.000000 0.000000 0.000000 0.000000 0.000000 
16.279896 16.418560 1.208576 -14.589198 -89.695258 54.797555 1.808674 -2.008254 -9.586744 -0.167037 -2.525066 -5.136207 -5.429875 -2.714008 -0.632748 11.780729 -11.275648 -14.083524 -2.432125 -0.077139 -2.193112 0.000000 0.000000 0.000000 2.867505 7.346335 3.020330 -80.514737 7.842362 4.954788 -0.785206 -59.607195 -0.064297 29.323455 -17.312184 -4.667292 -0.214598 0.280011 -0.000000 0.000000 0.000000 0.000000 0.000000 0.000000 0.000000 12.065412 -6.267182 2.459550 80.371217 9.683404 14.522605 1.339833 50.514118 -0.039322 -15.269951 14.654408 -2.047284 0.190926 -0.354845 0.000000 0.000000 0.000000 0.000000 0.000000 0.000000 0.000000 
16.256905 16.314802 1.209064 -8.644348 -89.944984 49.788910 1.644870 -1.992571 -9.720030 -0.205802 -2.500547 -5.198825 -5.416905 -2.695822 -0.715930 11.835945 -11.260804 -14.193526 -2.412524 -0.072581 -2.246634 0.000000 0.000000 0.000000 2.981162 7.184146 3.075844 -80.543693 8.145563 5.310144 -0.758379 -60.141147 -0.066648 29.494586 -17.408990 -4.723974 -0.217403 0.286292 -0.000000 0.000000 0.000000 0.000000 0.000000 0.000000 0.000000 12.023012 -6.222441 2.530544 80.534284 9.548340 14.809640 1.305863 51.039759 -0.040951 -15.519018 14.941532 -2.122265 0.193028 -0.361870 0.000000 0.000000 0.000000 0.000000 0.000000 0.000000 0.000000 
16.233406 16.201996 1.210012 178.836251 -89.823779 -136.737797 1.528744 -1.963923 -9.880019 -0.234441 -2.471720 -5.267054 -5.407395 -2.674041 -0.795966 11.891527 -11.245906 -14.300742 -2.396063 -0.068379 -2.299173 0.000000 0.000000 0.000000 3.069423 7.023650 3.128572 -80.552835 8.424537 5.599677 -0.732331 -60.656566 -0.069001 29.673513 -17.508962 -4.782956 -0.219905 0.292296 -0.000000 0.000000 0.000000 0.000000 0.000000 0.000000 0.000000 11.995458 -6.179828 2.601291 80.652515 9.446257 15.107255 1.275435 51.533667 -0.042533 -15.792935 15.240208 -2.203744 0.195572 -0.368691 0.000000 0.000000 0.000000 0.000000 0.000000 0.000000 0.000000 
16.208963 16.080084 1.211629 -172.679143 -89.654355 -144.252821 1.487333 -1.930724 -10.067144 -0.246103 -2.450003 -5.339127 -5.401509 -2.659705 -0.866342 11.950676 -11.243445 -14.411707 -2.382337 -0.064429 -2.352631 0.000000 0.000000 0.000000 3.130023 6.881501 3.178533 -80.547037 8.653737 5.830126 -0.707579 -61.132517 -0.071336 29.876725 -17.611843 -4.847142 -0.222217 0.297904 -0.000000 0.000000 0.000000 0.000000 0.000000 0.000000 0.000000 11.988558 -6.157986 2.668937 80.721903 9.393628 15.433303 1.248791 51.989124 -0.044062 -16.096225 15.539452 -2.291123 0.198640 -0.375095 0.000000 0.000000 0.000000 0.000000 0.000000 0.000000 0.000000 
16.183876 15.949296 1.214097 -164.133828 -89.586000 -151.818520 1.516062 -1.910012 -10.278034 -0.240844 -2.450774 -5.414798 -5.399393 -2.667781 -0.930186 12.012262 -11.245056 -14.522862 -2.373430 -0.061004 -2.406010 0.000000 0.000000 0.000000 3.157650 6.738389 3.228136 -80.529849 8.840418 5.982330 -0.684082 -61.570058 -0.073652 30.112095 -17.715114 -4.917227 -0.224368 0.303038 -0.000000 0.000000 0.000000 0.000000 0.000000 0.000000 0.000000 12.007598 -6.155131 2.733042 80.742294 9.380041 15.770828 1.224411 52.410431 -0.045571 -16.420435 15.828026 -2.381604 0.201988 -0.381003 0.000000 0.000000 0.000000 0.000000 0.000000 0.000000 0.000000 
16.158083 15.809914 1.217482 -156.423071 -89.620463 -158.547350 1.576296 -1.913858 -10.506193 -0.226595 -2.480098 -5.492169 -5.398736 -2.703997 -0.986377 12.078289 -11.250608 -14.635209 -2.369819 -0.058107 -2.459777 0.000000 0.000000 0.000000 3.152289 6.597679 3.278281 -80.503327 8.971454 6.057670 -0.662190 -61.956029 -0.075930 30.385769 -17.815493 -4.993316 -0.226414 0.307586 -0.000000 0.000000 0.000000 0.000000 0.000000 0.000000 0.000000 12.058916 -6.175029 2.792862 80.714515 9.409492 16.117714 1.201645 52.792446 -0.047076 -16.761372 16.096683 -2.473385 0.205507 -0.386352 0.000000 0.000000 0.000000 0.000000 0.000000 0.000000 0.000000 
16.131518 15.662530 1.221860 -150.098736 -89.725460 -163.898384 1.632474 -1.940108 -10.741742 -0.212551 -2.530534 -5.571290 -5.399539 -2.760863 -1.043123 12.147919 -11.242737 -14.740784 -2.373877 -0.056053 -2.511723 0.000000 0.000000 0.000000 3.107746 6.437797 3.330215 -80.468351 9.066954 6.030856 -0.640859 -62.300102 -0.078186 30.693542 -17.907847 -5.073510 -0.228163 0.311456 -0.000000 0.000000 0.000000 0.000000 0.000000 0.000000 0.000000 12.146973 -6.195684 2.851434 80.642954 9.465867 16.445560 1.179806 53.136792 -0.048613 -17.104075 16.339187 -2.562970 0.208960 -0.391256 0.000000 0.000000 0.000000 0.000000 0.000000 0.000000 0.000000 
16.104491 15.507882 1.227122 -145.218570 -89.863870 -167.825787 1.671240 -1.979710 -10.972747 -0.202875 -2.590991 -5.649858 -5.401639 -2.827305 -1.101248 12.223843 -11.217988 -14.839437 -2.386009 -0.054851 -2.562026 0.000000 0.000000 0.000000 3.024496 6.268547 3.383800 -80.425418 9.115122 5.907210 -0.619731 -62.589115 -0.080427 31.029859 -17.987933 -5.155411 -0.229473 0.314565 -0.000000 0.000000 0.000000 0.000000 0.000000 0.000000 0.000000 12.276552 -6.208135 2.909793 80.531395 9.553753 16.748564 1.159428 53.433119 -0.050165 -17.441290 16.552684 -2.648759 0.212303 -0.395756 0.000000 0.000000 0.000000 0.000000 0.000000 0.000000 0.000000 
16.076773 15.346863 1.233200 38.402804 -89.987776 9.473152 1.694639 -2.024862 -11.187032 -0.198026 -2.653758 -5.726123 -5.406159 -2.895719 -1.164245 12.306854 -11.167232 -14.928017 -2.407344 -0.054639 -2.609960 0.000000 0.000000 0.000000 2.901308 6.087725 3.439558 -80.373709 9.113207 5.687502 -0.598334 -62.816549 -0.082672 31.383504 -18.050337 -5.235522 -0.230162 0.316893 -0.000000 0.000000 0.000000 0.000000 0.000000 0.000000 0.000000 12.450944 -6.198562 2.969451 80.384448 9.669774 17.011821 1.140629 53.672789 -0.051730 -17.763154 16.738299 -2.728951 0.215400 -0.399916 0.000000 0.000000 0.000000 0.000000 0.000000 0.000000 0.000000 
16.048498 15.180500 1.239918 41.032824 -89.839884 7.720379 1.708414 -2.071259 -11.373695 -0.197413 -2.715125 -5.799090 -5.415017 -2.962535 -1.237682 12.395762 -11.076988 -15.000736 -2.439724 -0.055676 -2.653967 0.000000 0.000000 0.000000 2.735935 5.881609 3.498526 -80.310540 9.067723 5.368409 -0.576204 -62.982727 -0.084939 31.738266 -18.089782 -5.309343 -0.230043 0.318476 -0.000000 0.000000 0.000000 0.000000 0.000000 0.000000 0.000000 12.672666 -6.150352 3.032183 80.207998 9.803488 17.212599 1.122982 53.849337 -0.053314 -18.059486 16.900725 -2.802449 0.218034 -0.403825 0.000000 0.000000 0.000000 0.000000 0.000000 0.000000 0.000000 
16.019670 15.009866 1.247014 42.968703 -89.693733 6.609974 1.715448 -2.118046 -11.524311 -0.200123 -2.774455 -5.865315 -5.427620 -3.027129 -1.316085 12.492733 -10.953383 -15.062572 -2.482306 -0.057786 -2.695724 0.000000 0.000000 0.000000 2.535792 5.676262 3.560119 -80.232329 8.939673 4.990033 -0.554143 -63.056370 -0.087207 32.084641 -18.102832 -5.373976 -0.229129 0.319336 -0.000000 0.000000 0.000000 0.000000 0.000000 0.000000 0.000000 12.944284 -6.070162 3.096189 80.006547 9.970769 17.358786 1.106907 53.943577 -0.054890 -18.332983 17.047215 -2.870554 0.220204 -0.407431 0.000000 0.000000 0.000000 0.000000 0.000000 0.000000 0.000000 
